<svg width="56" height="56" viewBox="0 0 56 56" fill="none" xmlns="http://www.w3.org/2000/svg">
<g id="instagram-svgrepo-com 1">
<path id="Vector" fill-rule="evenodd" clip-rule="evenodd" d="M4.66675 13.9998C4.66675 8.84518 8.84542 4.6665 14.0001 4.6665H42.0001C47.1546 4.6665 51.3334 8.84518 51.3334 13.9998V41.9998C51.3334 47.1544 47.1546 51.3332 42.0001 51.3332H14.0001C8.84542 51.3332 4.66675 47.1544 4.66675 41.9998V13.9998ZM14.0001 9.33317C11.4228 9.33317 9.33341 11.4225 9.33341 13.9998V41.9998C9.33341 44.5772 11.4228 46.6665 14.0001 46.6665H42.0001C44.5775 46.6665 46.6667 44.5772 46.6667 41.9998V13.9998C46.6667 11.4225 44.5775 9.33317 42.0001 9.33317H14.0001ZM28.0001 20.9998C24.134 20.9998 21.0001 24.1337 21.0001 27.9998C21.0001 31.8659 24.134 34.9998 28.0001 34.9998C31.8662 34.9998 35.0001 31.8659 35.0001 27.9998C35.0001 24.1337 31.8662 20.9998 28.0001 20.9998ZM16.3334 27.9998C16.3334 21.5565 21.5568 16.3332 28.0001 16.3332C34.4433 16.3332 39.6667 21.5565 39.6667 27.9998C39.6667 34.4431 34.4433 39.6665 28.0001 39.6665C21.5568 39.6665 16.3334 34.4431 16.3334 27.9998ZM40.8334 18.6665C42.7663 18.6665 44.3334 17.0995 44.3334 15.1665C44.3334 13.2335 42.7663 11.6665 40.8334 11.6665C38.9005 11.6665 37.3334 13.2335 37.3334 15.1665C37.3334 17.0995 38.9005 18.6665 40.8334 18.6665Z" fill="white"/>
</g>
</svg>
