<svg width="54" height="54" viewBox="0 0 54 54" fill="none" xmlns="http://www.w3.org/2000/svg">
<g id="youtube-svgrepo-com 1" clip-path="url(#clip0_748_459)">
<path id="Vector" fill-rule="evenodd" clip-rule="evenodd" d="M21.3663 16.0465C20.6699 15.6485 19.8144 15.6514 19.1207 16.0539C18.427 16.4565 18 17.1979 18 18V36C18 36.8021 18.427 37.5435 19.1207 37.946C19.8144 38.3485 20.6699 38.3515 21.3663 37.9534L37.1162 28.9534C37.8173 28.5529 38.25 27.8075 38.25 27C38.25 26.1925 37.8173 25.447 37.1162 25.0465L21.3663 16.0465ZM31.4649 27L22.5 32.1228V21.8771L31.4649 27Z" fill="white"/>
<path id="Vector_2" fill-rule="evenodd" clip-rule="evenodd" d="M0 27C0 18.5631 0 14.3446 2.14856 11.3874C2.84245 10.4323 3.68235 9.59245 4.63741 8.89855C7.59465 6.75 11.8131 6.75 20.25 6.75H33.75C42.1868 6.75 46.4053 6.75 49.3625 8.89855C50.3176 9.59245 51.1576 10.4323 51.8515 11.3874C54 14.3446 54 18.5631 54 27C54 35.4368 54 39.6553 51.8515 42.6125C51.1576 43.5676 50.3176 44.4076 49.3625 45.1015C46.4053 47.25 42.1868 47.25 33.75 47.25H20.25C11.8131 47.25 7.59465 47.25 4.63741 45.1015C3.68235 44.4076 2.84245 43.5676 2.14856 42.6125C0 39.6553 0 35.4368 0 27ZM20.25 11.25H33.75C38.0686 11.25 40.9462 11.2562 43.1264 11.4924C45.2225 11.7195 46.134 12.1151 46.7176 12.5391C47.2905 12.9555 47.7945 13.4594 48.211 14.0324C48.6349 14.6161 49.0304 15.5275 49.2577 17.6236C49.4939 19.8038 49.5 22.6813 49.5 27C49.5 31.3186 49.4939 34.1962 49.2577 36.3764C49.0304 38.4725 48.6349 39.384 48.211 39.9676C47.7945 40.5405 47.2905 41.0445 46.7176 41.461C46.134 41.8849 45.2225 42.2804 43.1264 42.5077C40.9462 42.7439 38.0686 42.75 33.75 42.75H20.25C15.9313 42.75 13.0538 42.7439 10.8736 42.5077C8.77754 42.2804 7.86611 41.8849 7.28244 41.461C6.70941 41.0445 6.20548 40.5405 5.78914 39.9676C5.36508 39.384 4.96948 38.4725 4.74239 36.3764C4.50619 34.1962 4.5 31.3186 4.5 27C4.5 22.6813 4.50619 19.8038 4.74239 17.6236C4.96948 15.5275 5.36508 14.6161 5.78914 14.0324C6.20548 13.4594 6.70941 12.9555 7.28244 12.5391C7.86611 12.1151 8.77754 11.7195 10.8736 11.4924C13.0538 11.2562 15.9313 11.25 20.25 11.25Z" fill="white"/>
</g>
<defs>
<clipPath id="clip0_748_459">
<rect width="54" height="54" fill="white"/>
</clipPath>
</defs>
</svg>
